@startuml ClassDiagram

!define POSITIVERESPONSE 90EE90

!define NEGATIVEERESPONSE EFBBBB

!define NUETRALRESPONSE F2DC79

skinparam sequence{
    ParticipantBackgroundColor #A7BEAE
    LifeLineBackgroundColor #E7E8D1
    LifeLineBorderColor #2C5F2D
    ActorBackgroundColor #FC766AFF
    ActorBorderColor #FC766AFF
    ArrowColor #B85042
    ArrowFontColor #234E70
}

title "ResponseScreen-ClassDiagram"

package Pages{
    package ResponseScreen{
        class ResponseScreenModel{
            +@statusCode : int
            + @pageTitle: String
            +@isLoading : Bool

        }
        class ResponseScreenVM{
            +Constructor(): void
            +goBackToHome(): void
        }
        class ResponseScreen{
            - _instanceOfVM : ResponseScreenVM
            + initState() : void
            + dispose() : void
        }
    }
}

ResponseScreenVM --> ResponseScreenModel :extends
ResponseScreen --> ResponseScreenVM :uses


